<?xml version="1.0" encoding="utf-8"?><svg xmlns="http://www.w3.org/2000/svg" xmlns:xlink="http://www.w3.org/1999/xlink" width="1182" height="507" preserveAspectRatio="xMidYMid" viewBox="0 0 1182 507" style="z-index:1;margin-right:-1.23077px;display:block;background-color:rgb(60, 61, 65);animation-play-state:paused" ><g transform="translate(591,253.5) scale(1,1) translate(-591,-253.5)" style="transform:matrix(1, 0, 0, 1, 0, 0);animation-play-state:paused" ><path d="M 0 281 C 197 281 394 357 591 357 C 788 357 985 281 1182 281 C 1379 281 1576 357 1773 357 C 1970 357 2167 281 2364 281" fill="none" stroke="rgb(98, 82, 197)" stroke-opacity="0" stroke-width="2" transform="matrix(1,0,0,1,0,0)" style="transform:matrix(1, 0, 0, 1, 0, 0);animation-play-state:paused" ></path>
<path d="M 0 281.012 C 197 281.012 394 356.988 591 356.988 C 788 356.988 985 281.012 1182 281.012 C 1379 281.012 1576 356.988 1773 356.988 C 1970 356.988 2167 281.012 2364 281.012" fill="none" stroke="rgb(98, 82, 197)" stroke-opacity="0" stroke-width="2" transform="matrix(1,0,0,1,-6.303901195526123,0)" style="transform:matrix(1, 0, 0, 1, -6.3039, 0);animation-play-state:paused" ></path>
<path d="M 0 281.047 C 197 281.047 394 356.953 591 356.953 C 788 356.953 985 281.047 1182 281.047 C 1379 281.047 1576 356.953 1773 356.953 C 1970 356.953 2167 281.047 2364 281.047" fill="none" stroke="rgb(98, 82, 197)" stroke-opacity="0" stroke-width="2" transform="matrix(1,0,0,1,-12.607802391052246,0)" style="transform:matrix(1, 0, 0, 1, -12.6078, 0);animation-play-state:paused" ></path>
<path d="M 0 281.107 C 197 281.107 394 356.893 591 356.893 C 788 356.893 985 281.107 1182 281.107 C 1379 281.107 1576 356.893 1773 356.893 C 1970 356.893 2167 281.107 2364 281.107" fill="none" stroke="rgb(98, 82, 197)" stroke-opacity="0" stroke-width="2" transform="matrix(1,0,0,1,-18.91200065612793,0)" style="transform:matrix(1, 0, 0, 1, -18.912, 0);animation-play-state:paused" ></path>
<path d="M 0 281.192 C 197 281.192 394 356.808 591 356.808 C 788 356.808 985 281.192 1182 281.192 C 1379 281.192 1576 356.808 1773 356.808 C 1970 356.808 2167 281.192 2364 281.192" fill="none" stroke="rgb(97, 83, 197)" stroke-opacity="0" stroke-width="2" transform="matrix(1,0,0,1,-25.215900421142578,0)" style="transform:matrix(1, 0, 0, 1, -25.2159, 0);animation-play-state:paused" ></path>
<path d="M 0 281.303 C 197 281.303 394 356.697 591 356.697 C 788 356.697 985 281.303 1182 281.303 C 1379 281.303 1576 356.697 1773 356.697 C 1970 356.697 2167 281.303 2364 281.303" fill="none" stroke="rgb(97, 83, 197)" stroke-opacity="0" stroke-width="2" transform="matrix(1,0,0,1,-31.51980209350586,0)" style="transform:matrix(1, 0, 0, 1, -31.5198, 0);animation-play-state:paused" ></path>
<path d="M 0 281.44 C 197 281.44 394 356.56 591 356.56 C 788 356.56 985 281.44 1182 281.44 C 1379 281.44 1576 356.56 1773 356.56 C 1970 356.56 2167 281.44 2364 281.44" fill="none" stroke="rgb(97, 84, 198)" stroke-opacity="0" stroke-width="2" transform="matrix(1,0,0,1,-37.82400131225586,0)" style="transform:matrix(1, 0, 0, 1, -37.824, 0);animation-play-state:paused" ></path>
<path d="M 0 281.605 C 197 281.605 394 356.395 591 356.395 C 788 356.395 985 281.605 1182 281.605 C 1379 281.605 1576 356.395 1773 356.395 C 1970 356.395 2167 281.605 2364 281.605" fill="none" stroke="rgb(96, 85, 198)" stroke-opacity="0" stroke-width="2" transform="matrix(1,0,0,1,-44.12790298461914,0)" style="transform:matrix(1, 0, 0, 1, -44.1279, 0);animation-play-state:paused" ></path>
<path d="M 0 281.798 C 197 281.798 394 356.202 591 356.202 C 788 356.202 985 281.798 1182 281.798 C 1379 281.798 1576 356.202 1773 356.202 C 1970 356.202 2167 281.798 2364 281.798" fill="none" stroke="rgb(95, 86, 198)" stroke-opacity="0" stroke-width="2" transform="matrix(1,0,0,1,-50.431800842285156,0)" style="transform:matrix(1, 0, 0, 1, -50.4318, 0);animation-play-state:paused" ></path>
<path d="M 0 282.02 C 197 282.02 394 355.98 591 355.98 C 788 355.98 985 282.02 1182 282.02 C 1379 282.02 1576 355.98 1773 355.98 C 1970 355.98 2167 282.02 2364 282.02" fill="none" stroke="rgb(95, 87, 198)" stroke-opacity="0" stroke-width="2" transform="matrix(1,0,0,1,-56.736000061035156,0)" style="transform:matrix(1, 0, 0, 1, -56.736, 0);animation-play-state:paused" ></path>
<path d="M 0 282.272 C 197 282.272 394 355.728 591 355.728 C 788 355.728 985 282.272 1182 282.272 C 1379 282.272 1576 355.728 1773 355.728 C 1970 355.728 2167 282.272 2364 282.272" fill="none" stroke="rgb(94, 88, 199)" stroke-opacity="0" stroke-width="2" transform="matrix(1,0,0,1,-63.03990173339844,0)" style="transform:matrix(1, 0, 0, 1, -63.0399, 0);animation-play-state:paused" ></path>
<path d="M 0 282.556 C 197 282.556 394 355.444 591 355.444 C 788 355.444 985 282.556 1182 282.556 C 1379 282.556 1576 355.444 1773 355.444 C 1970 355.444 2167 282.556 2364 282.556" fill="none" stroke="rgb(93, 89, 199)" stroke-opacity="0" stroke-width="2" transform="matrix(1,0,0,1,-69.34380340576172,0)" style="transform:matrix(1, 0, 0, 1, -69.3438, 0);animation-play-state:paused" ></path>
<path d="M 0 282.87 C 197 282.87 394 355.13 591 355.13 C 788 355.13 985 282.87 1182 282.87 C 1379 282.87 1576 355.13 1773 355.13 C 1970 355.13 2167 282.87 2364 282.87" fill="none" stroke="rgb(92, 91, 200)" stroke-opacity="0" stroke-width="2" transform="matrix(1,0,0,1,-75.64800262451172,0)" style="transform:matrix(1, 0, 0, 1, -75.648, 0);animation-play-state:paused" ></path>
<path d="M 0 283.218 C 197 283.218 394 354.782 591 354.782 C 788 354.782 985 283.218 1182 283.218 C 1379 283.218 1576 354.782 1773 354.782 C 1970 354.782 2167 283.218 2364 283.218" fill="none" stroke="rgb(91, 92, 200)" stroke-opacity="0" stroke-width="2" transform="matrix(1,0,0,1,-81.95189666748047,0)" style="transform:matrix(1, 0, 0, 1, -81.9519, 0);animation-play-state:paused" ></path>
<path d="M 0 283.599 C 197 283.599 394 354.401 591 354.401 C 788 354.401 985 283.599 1182 283.599 C 1379 283.599 1576 354.401 1773 354.401 C 1970 354.401 2167 283.599 2364 283.599" fill="none" stroke="rgb(89, 94, 201)" stroke-opacity="0" stroke-width="2" transform="matrix(1,0,0,1,-88.25580596923828,0)" style="transform:matrix(1, 0, 0, 1, -88.2558, 0);animation-play-state:paused" ></path>
<path d="M 0 284.015 C 197 284.015 394 353.985 591 353.985 C 788 353.985 985 284.015 1182 284.015 C 1379 284.015 1576 353.985 1773 353.985 C 1970 353.985 2167 284.015 2364 284.015" fill="none" stroke="rgb(88, 96, 202)" stroke-opacity="0" stroke-width="2" transform="matrix(1,0,0,1,-94.55999755859375,0)" style="transform:matrix(1, 0, 0, 1, -94.56, 0);animation-play-state:paused" ></path>
<path d="M 0 284.467 C 197 284.467 394 353.533 591 353.533 C 788 353.533 985 284.467 1182 284.467 C 1379 284.467 1576 353.533 1773 353.533 C 1970 353.533 2167 284.467 2364 284.467" fill="none" stroke="rgb(86, 99, 202)" stroke-opacity="0" stroke-width="2" transform="matrix(1,0,0,1,-100.86389923095703,0)" style="transform:matrix(1, 0, 0, 1, -100.864, 0);animation-play-state:paused" ></path>
<path d="M 0 284.955 C 197 284.955 394 353.045 591 353.045 C 788 353.045 985 284.955 1182 284.955 C 1379 284.955 1576 353.045 1773 353.045 C 1970 353.045 2167 284.955 2364 284.955" fill="none" stroke="rgb(84, 101, 203)" stroke-opacity="0" stroke-width="2" transform="matrix(1,0,0,1,-107.16780853271484,0)" style="transform:matrix(1, 0, 0, 1, -107.168, 0);animation-play-state:paused" ></path>
<path d="M 0 285.482 C 197 285.482 394 352.518 591 352.518 C 788 352.518 985 285.482 1182 285.482 C 1379 285.482 1576 352.518 1773 352.518 C 1970 352.518 2167 285.482 2364 285.482" fill="none" stroke="rgb(82, 104, 204)" stroke-opacity="0" stroke-width="2" transform="matrix(1,0,0,1,-113.47200012207031,0)" style="transform:matrix(1, 0, 0, 1, -113.472, 0);animation-play-state:paused" ></path>
<path d="M 0 286.047 C 197 286.047 394 351.953 591 351.953 C 788 351.953 985 286.047 1182 286.047 C 1379 286.047 1576 351.953 1773 351.953 C 1970 351.953 2167 286.047 2364 286.047" fill="none" stroke="rgb(80, 107, 205)" stroke-opacity="0" stroke-width="2" transform="matrix(1,0,0,1,-119.7759017944336,0)" style="transform:matrix(1, 0, 0, 1, -119.776, 0);animation-play-state:paused" ></path>
<path d="M 0 286.651 C 197 286.651 394 351.349 591 351.349 C 788 351.349 985 286.651 1182 286.651 C 1379 286.651 1576 351.349 1773 351.349 C 1970 351.349 2167 286.651 2364 286.651" fill="none" stroke="rgb(78, 109, 206)" stroke-opacity="0" stroke-width="2" transform="matrix(1,0,0,1,-126.07980346679688,0)" style="transform:matrix(1, 0, 0, 1, -126.08, 0);animation-play-state:paused" ></path>
<path d="M 0 287.297 C 197 287.297 394 350.703 591 350.703 C 788 350.703 985 287.297 1182 287.297 C 1379 287.297 1576 350.703 1773 350.703 C 1970 350.703 2167 287.297 2364 287.297" fill="none" stroke="rgb(76, 113, 207)" stroke-opacity="0" stroke-width="2" transform="matrix(1,0,0,1,-132.38400268554688,0)" style="transform:matrix(1, 0, 0, 1, -132.384, 0);animation-play-state:paused" ></path>
<path d="M 0 287.984 C 197 287.984 394 350.016 591 350.016 C 788 350.016 985 287.984 1182 287.984 C 1379 287.984 1576 350.016 1773 350.016 C 1970 350.016 2167 287.984 2364 287.984" fill="none" stroke="rgb(73, 116, 208)" stroke-opacity="0" stroke-width="2" transform="matrix(1,0,0,1,-138.68789672851562,0)" style="transform:matrix(1, 0, 0, 1, -138.688, 0);animation-play-state:paused" ></path>
<path d="M 0 288.715 C 197 288.715 394 349.285 591 349.285 C 788 349.285 985 288.715 1182 288.715 C 1379 288.715 1576 349.285 1773 349.285 C 1970 349.285 2167 288.715 2364 288.715" fill="none" stroke="rgb(71, 119, 209)" stroke-opacity="0" stroke-width="2" transform="matrix(1,0,0,1,-144.99180603027344,0)" style="transform:matrix(1, 0, 0, 1, -144.992, 0);animation-play-state:paused" ></path>
<path d="M 0 289.489 C 197 289.489 394 348.511 591 348.511 C 788 348.511 985 289.489 1182 289.489 C 1379 289.489 1576 348.511 1773 348.511 C 1970 348.511 2167 289.489 2364 289.489" fill="none" stroke="rgb(69, 122, 210)" stroke-opacity="0" stroke-width="2" transform="matrix(1,0,0,1,-151.29600524902344,0)" style="transform:matrix(1, 0, 0, 1, -151.296, 0);animation-play-state:paused" ></path>
<path d="M 0 290.307 C 197 290.307 394 347.693 591 347.693 C 788 347.693 985 290.307 1182 290.307 C 1379 290.307 1576 347.693 1773 347.693 C 1970 347.693 2167 290.307 2364 290.307" fill="none" stroke="rgb(66, 126, 211)" stroke-opacity="0" stroke-width="2" transform="matrix(1,0,0,1,-157.5998992919922,0)" style="transform:matrix(1, 0, 0, 1, -157.6, 0);animation-play-state:paused" ></path>
<path d="M 0 291.172 C 197 291.172 394 346.828 591 346.828 C 788 346.828 985 291.172 1182 291.172 C 1379 291.172 1576 346.828 1773 346.828 C 1970 346.828 2167 291.172 2364 291.172" fill="none" stroke="rgb(64, 129, 212)" stroke-opacity="0" stroke-width="2" transform="matrix(1,0,0,1,-163.90379333496094,0)" style="transform:matrix(1, 0, 0, 1, -163.904, 0);animation-play-state:paused" ></path>
<path d="M 0 292.082 C 197 292.082 394 345.918 591 345.918 C 788 345.918 985 292.082 1182 292.082 C 1379 292.082 1576 345.918 1773 345.918 C 1970 345.918 2167 292.082 2364 292.082" fill="none" stroke="rgb(62, 132, 213)" stroke-opacity="0" stroke-width="2" transform="matrix(1,0,0,1,-170.20799255371094,0)" style="transform:matrix(1, 0, 0, 1, -170.208, 0);animation-play-state:paused" ></path>
<path d="M 0 293.039 C 197 293.039 394 344.961 591 344.961 C 788 344.961 985 293.039 1182 293.039 C 1379 293.039 1576 344.961 1773 344.961 C 1970 344.961 2167 293.039 2364 293.039" fill="none" stroke="rgb(60, 135, 214)" stroke-opacity="0" stroke-width="2" transform="matrix(1,0,0,1,-176.51190185546875,0)" style="transform:matrix(1, 0, 0, 1, -176.512, 0);animation-play-state:paused" ></path>
<path d="M 0 294.043 C 197 294.043 394 343.957 591 343.957 C 788 343.957 985 294.044 1182 294.044 C 1379 294.044 1576 343.957 1773 343.957 C 1970 343.957 2167 294.044 2364 294.044" fill="none" stroke="rgb(58, 138, 215)" stroke-opacity="0" stroke-width="2" transform="matrix(1,0,0,1,-182.8157958984375,0)" style="transform:matrix(1, 0, 0, 1, -182.816, 0);animation-play-state:paused" ></path>
<path d="M 0 295.096 C 197 295.096 394 342.904 591 342.904 C 788 342.904 985 295.096 1182 295.096 C 1379 295.096 1576 342.904 1773 342.904 C 1970 342.904 2167 295.096 2364 295.096" fill="none" stroke="rgb(56, 140, 216)" stroke-opacity="0" stroke-width="2" transform="matrix(1,0,0,1,-189.1199951171875,0)" style="transform:matrix(1, 0, 0, 1, -189.12, 0);animation-play-state:paused" ></path>
<path d="M 0 296.195 C 197 296.195 394 341.805 591 341.805 C 788 341.805 985 296.195 1182 296.195 C 1379 296.195 1576 341.805 1773 341.805 C 1970 341.805 2167 296.195 2364 296.195" fill="none" stroke="rgb(54, 143, 217)" stroke-opacity="0" stroke-width="2" transform="matrix(1,0,0,1,-195.4239044189453,0)" style="transform:matrix(1, 0, 0, 1, -195.424, 0);animation-play-state:paused" ></path>
<path d="M 0 297.343 C 197 297.343 394 340.657 591 340.657 C 788 340.657 985 297.343 1182 297.343 C 1379 297.343 1576 340.657 1773 340.657 C 1970 340.657 2167 297.343 2364 297.343" fill="none" stroke="rgb(52, 145, 217)" stroke-opacity="0" stroke-width="2" transform="matrix(1,0,0,1,-201.72779846191406,0)" style="transform:matrix(1, 0, 0, 1, -201.728, 0);animation-play-state:paused" ></path>
<path d="M 0 298.537 C 197 298.537 394 339.463 591 339.463 C 788 339.463 985 298.537 1182 298.537 C 1379 298.537 1576 339.463 1773 339.463 C 1970 339.463 2167 298.537 2364 298.537" fill="none" stroke="rgb(51, 147, 218)" stroke-opacity="0" stroke-width="2" transform="matrix(1,0,0,1,-208.03199768066406,0)" style="transform:matrix(1, 0, 0, 1, -208.032, 0);animation-play-state:paused" ></path>
<path d="M 0 299.779 C 197 299.779 394 338.221 591 338.221 C 788 338.221 985 299.779 1182 299.779 C 1379 299.779 1576 338.221 1773 338.221 C 1970 338.221 2167 299.779 2364 299.779" fill="none" stroke="rgb(49, 149, 219)" stroke-opacity="0" stroke-width="2" transform="matrix(1,0,0,1,-214.3358917236328,0)" style="transform:matrix(1, 0, 0, 1, -214.336, 0);animation-play-state:paused" ></path>
<path d="M 0 301.066 C 197 301.066 394 336.934 591 336.934 C 788 336.934 985 301.066 1182 301.066 C 1379 301.066 1576 336.934 1773 336.934 C 1970 336.934 2167 301.066 2364 301.066" fill="none" stroke="rgb(48, 151, 219)" stroke-opacity="0" stroke-width="2" transform="matrix(1,0,0,1,-220.63980102539062,0)" style="transform:matrix(1, 0, 0, 1, -220.64, 0);animation-play-state:paused" ></path>
<path d="M 0 302.397 C 197 302.397 394 335.603 591 335.603 C 788 335.603 985 302.397 1182 302.397 C 1379 302.397 1576 335.603 1773 335.603 C 1970 335.603 2167 302.397 2364 302.397" fill="none" stroke="rgb(47, 152, 220)" stroke-opacity="0" stroke-width="2" transform="matrix(1,0,0,1,-226.94400024414062,0)" style="transform:matrix(1, 0, 0, 1, -226.944, 0);animation-play-state:paused" ></path>
<path d="M 0 303.771 C 197 303.771 394 334.229 591 334.229 C 788 334.229 985 303.771 1182 303.771 C 1379 303.771 1576 334.229 1773 334.229 C 1970 334.229 2167 303.771 2364 303.771" fill="none" stroke="rgb(46, 153, 220)" stroke-opacity="0" stroke-width="2" transform="matrix(1,0,0,1,-233.24789428710938,0)" style="transform:matrix(1, 0, 0, 1, -233.248, 0);animation-play-state:paused" ></path>
<path d="M 0 305.186 C 197 305.186 394 332.814 591 332.814 C 788 332.814 985 305.186 1182 305.186 C 1379 305.186 1576 332.814 1773 332.814 C 1970 332.814 2167 305.186 2364 305.186" fill="none" stroke="rgb(45, 155, 221)" stroke-opacity="0" stroke-width="2" transform="matrix(1,0,0,1,-239.5518035888672,0)" style="transform:matrix(1, 0, 0, 1, -239.552, 0);animation-play-state:paused" ></path>
<path d="M 0 306.639 C 197 306.639 394 331.361 591 331.361 C 788 331.361 985 306.639 1182 306.639 C 1379 306.639 1576 331.361 1773 331.361 C 1970 331.361 2167 306.639 2364 306.639" fill="none" stroke="rgb(44, 156, 221)" stroke-opacity="0" stroke-width="2" transform="matrix(1,0,0,1,-245.8560028076172,0)" style="transform:matrix(1, 0, 0, 1, -245.856, 0);animation-play-state:paused" ></path>
<path d="M 0 308.127 C 197 308.127 394 329.873 591 329.873 C 788 329.873 985 308.127 1182 308.127 C 1379 308.127 1576 329.873 1773 329.873 C 1970 329.873 2167 308.127 2364 308.127" fill="none" stroke="rgb(44, 156, 221)" stroke-opacity="0" stroke-width="2" transform="matrix(1,0,0,1,-252.15989685058594,0)" style="transform:matrix(1, 0, 0, 1, -252.16, 0);animation-play-state:paused" ></path>
<path d="M 0 309.647 C 197 309.647 394 328.353 591 328.353 C 788 328.353 985 309.647 1182 309.647 C 1379 309.647 1576 328.353 1773 328.353 C 1970 328.353 2167 309.647 2364 309.647" fill="none" stroke="rgb(43, 157, 221)" stroke-opacity="0" stroke-width="2" transform="matrix(1,0,0,1,-258.46380615234375,0)" style="transform:matrix(1, 0, 0, 1, -258.464, 0);animation-play-state:paused" ></path>
<path d="M 0 311.195 C 197 311.195 394 326.805 591 326.805 C 788 326.805 985 311.195 1182 311.195 C 1379 311.195 1576 326.805 1773 326.805 C 1970 326.805 2167 311.195 2364 311.195" fill="none" stroke="rgb(43, 158, 222)" stroke-opacity="0" stroke-width="2" transform="matrix(1,0,0,1,-264.76800537109375,0)" style="transform:matrix(1, 0, 0, 1, -264.768, 0);animation-play-state:paused" ></path>
<path d="M 0 312.768 C 197 312.768 394 325.232 591 325.232 C 788 325.232 985 312.768 1182 312.768 C 1379 312.768 1576 325.232 1773 325.232 C 1970 325.232 2167 312.768 2364 312.768" fill="none" stroke="rgb(43, 158, 222)" stroke-opacity="0" stroke-width="2" transform="matrix(1,0,0,1,-271.0718994140625,0)" style="transform:matrix(1, 0, 0, 1, -271.072, 0);animation-play-state:paused" ></path>
<path d="M 0 314.359 C 197 314.359 394 323.641 591 323.641 C 788 323.641 985 314.359 1182 314.359 C 1379 314.359 1576 323.641 1773 323.641 C 1970 323.641 2167 314.359 2364 314.359" fill="none" stroke="rgb(42, 159, 222)" stroke-opacity="0" stroke-width="2" transform="matrix(1,0,0,1,-277.37579345703125,0)" style="transform:matrix(1, 0, 0, 1, -277.376, 0);animation-play-state:paused" ></path>
<path d="M 0 315.966 C 197 315.966 394 322.034 591 322.034 C 788 322.034 985 315.966 1182 315.966 C 1379 315.966 1576 322.034 1773 322.034 C 1970 322.034 2167 315.966 2364 315.966" fill="none" stroke="rgb(42, 159, 222)" stroke-opacity="0" stroke-width="2" transform="matrix(1,0,0,1,-283.67999267578125,0)" style="transform:matrix(1, 0, 0, 1, -283.68, 0);animation-play-state:paused" ></path>
<path d="M 0 317.582 C 197 317.582 394 320.418 591 320.418 C 788 320.418 985 317.582 1182 317.582 C 1379 317.582 1576 320.418 1773 320.418 C 1970 320.418 2167 317.582 2364 317.582" fill="none" stroke="rgb(42, 159, 222)" stroke-opacity="0.022727272727272728" stroke-width="2" transform="matrix(1,0,0,1,-289.9839172363281,0)" style="transform:matrix(1, 0, 0, 1, -289.984, 0);animation-play-state:paused" ></path>
<path d="M 0 319.203 C 197 319.203 394 318.797 591 318.797 C 788 318.797 985 319.203 1182 319.203 C 1379 319.203 1576 318.797 1773 318.797 C 1970 318.797 2167 319.203 2364 319.203" fill="none" stroke="rgb(42, 159, 222)" stroke-opacity="0.045454545454545456" stroke-width="2" transform="matrix(1,0,0,1,-296.2878112792969,0)" style="transform:matrix(1, 0, 0, 1, -296.288, 0);animation-play-state:paused" ></path>
<path d="M 0 320.823 C 197 320.823 394 317.177 591 317.177 C 788 317.177 985 320.823 1182 320.823 C 1379 320.823 1576 317.177 1773 317.177 C 1970 317.177 2167 320.823 2364 320.823" fill="none" stroke="rgb(42, 159, 222)" stroke-opacity="0.06818181818181818" stroke-width="2" transform="matrix(1,0,0,1,-302.5920104980469,0)" style="transform:matrix(1, 0, 0, 1, -302.592, 0);animation-play-state:paused" ></path>
<path d="M 0 322.437 C 197 322.437 394 315.563 591 315.563 C 788 315.563 985 322.437 1182 322.437 C 1379 322.437 1576 315.563 1773 315.563 C 1970 315.563 2167 322.437 2364 322.437" fill="none" stroke="rgb(42, 159, 222)" stroke-opacity="0.09090909090909091" stroke-width="2" transform="matrix(1,0,0,1,-308.8959045410156,0)" style="transform:matrix(1, 0, 0, 1, -308.896, 0);animation-play-state:paused" ></path>
<path d="M 0 324.04 C 197 324.04 394 313.96 591 313.96 C 788 313.96 985 324.04 1182 324.04 C 1379 324.04 1576 313.96 1773 313.96 C 1970 313.96 2167 324.04 2364 324.04" fill="none" stroke="rgb(42, 159, 222)" stroke-opacity="0.11363636363636363" stroke-width="2" transform="matrix(1,0,0,1,-315.1997985839844,0)" style="transform:matrix(1, 0, 0, 1, -315.2, 0);animation-play-state:paused" ></path>
<path d="M 0 325.627 C 197 325.627 394 312.373 591 312.373 C 788 312.373 985 325.627 1182 325.627 C 1379 325.627 1576 312.373 1773 312.373 C 1970 312.373 2167 325.627 2364 325.627" fill="none" stroke="rgb(42, 160, 221)" stroke-opacity="0.13636363636363635" stroke-width="2" transform="matrix(1,0,0,1,-321.5040283203125,0)" style="transform:matrix(1, 0, 0, 1, -321.504, 0);animation-play-state:paused" ></path>
<path d="M 0 327.194 C 197 327.194 394 310.806 591 310.806 C 788 310.806 985 327.194 1182 327.194 C 1379 327.194 1576 310.806 1773 310.806 C 1970 310.806 2167 327.194 2364 327.194" fill="none" stroke="rgb(42, 160, 221)" stroke-opacity="0.1590909090909091" stroke-width="2" transform="matrix(1,0,0,1,-327.80792236328125,0)" style="transform:matrix(1, 0, 0, 1, -327.808, 0);animation-play-state:paused" ></path>
<path d="M 0 328.736 C 197 328.736 394 309.264 591 309.264 C 788 309.264 985 328.736 1182 328.736 C 1379 328.736 1576 309.264 1773 309.264 C 1970 309.264 2167 328.736 2364 328.736" fill="none" stroke="rgb(42, 161, 220)" stroke-opacity="0.18181818181818182" stroke-width="2" transform="matrix(1,0,0,1,-334.11181640625,0)" style="transform:matrix(1, 0, 0, 1, -334.112, 0);animation-play-state:paused" ></path>
<path d="M 0 330.248 C 197 330.248 394 307.752 591 307.752 C 788 307.752 985 330.248 1182 330.248 C 1379 330.248 1576 307.752 1773 307.752 C 1970 307.752 2167 330.248 2364 330.248" fill="none" stroke="rgb(42, 161, 220)" stroke-opacity="0.20454545454545456" stroke-width="2" transform="matrix(1,0,0,1,-340.4159851074219,0)" style="transform:matrix(1, 0, 0, 1, -340.416, 0);animation-play-state:paused" ></path>
<path d="M 0 331.728 C 197 331.728 394 306.272 591 306.272 C 788 306.272 985 331.728 1182 331.728 C 1379 331.728 1576 306.272 1773 306.272 C 1970 306.272 2167 331.728 2364 331.728" fill="none" stroke="rgb(42, 162, 219)" stroke-opacity="0.22727272727272727" stroke-width="2" transform="matrix(1,0,0,1,-346.71990966796875,0)" style="transform:matrix(1, 0, 0, 1, -346.72, 0);animation-play-state:paused" ></path>
<path d="M 0 333.171 C 197 333.171 394 304.829 591 304.829 C 788 304.829 985 333.171 1182 333.171 C 1379 333.171 1576 304.829 1773 304.829 C 1970 304.829 2167 333.171 2364 333.171" fill="none" stroke="rgb(41, 163, 218)" stroke-opacity="0.25" stroke-width="2" transform="matrix(1,0,0,1,-353.0238037109375,0)" style="transform:matrix(1, 0, 0, 1, -353.024, 0);animation-play-state:paused" ></path>
<path d="M 0 334.576 C 197 334.576 394 303.424 591 303.424 C 788 303.424 985 334.576 1182 334.576 C 1379 334.576 1576 303.424 1773 303.424 C 1970 303.424 2167 334.576 2364 334.576" fill="none" stroke="rgb(41, 164, 217)" stroke-opacity="0.2727272727272727" stroke-width="2" transform="matrix(1,0,0,1,-359.3280029296875,0)" style="transform:matrix(1, 0, 0, 1, -359.328, 0);animation-play-state:paused" ></path>
<path d="M 0 335.94 C 197 335.94 394 302.06 591 302.06 C 788 302.06 985 335.94 1182 335.94 C 1379 335.94 1576 302.06 1773 302.06 C 1970 302.06 2167 335.94 2364 335.94" fill="none" stroke="rgb(41, 166, 215)" stroke-opacity="0.29545454545454547" stroke-width="2" transform="matrix(1,0,0,1,-365.6319274902344,0)" style="transform:matrix(1, 0, 0, 1, -365.632, 0);animation-play-state:paused" ></path>
<path d="M 0 337.26 C 197 337.26 394 300.74 591 300.74 C 788 300.74 985 337.26 1182 337.26 C 1379 337.26 1576 300.74 1773 300.74 C 1970 300.74 2167 337.26 2364 337.26" fill="none" stroke="rgb(41, 167, 214)" stroke-opacity="0.3181818181818182" stroke-width="2" transform="matrix(1,0,0,1,-371.9358215332031,0)" style="transform:matrix(1, 0, 0, 1, -371.936, 0);animation-play-state:paused" ></path>
<path d="M 0 338.536 C 197 338.536 394 299.464 591 299.464 C 788 299.464 985 338.536 1182 338.536 C 1379 338.536 1576 299.464 1773 299.464 C 1970 299.464 2167 338.536 2364 338.536" fill="none" stroke="rgb(41, 168, 213)" stroke-opacity="0.3409090909090909" stroke-width="2" transform="matrix(1,0,0,1,-378.239990234375,0)" style="transform:matrix(1, 0, 0, 1, -378.24, 0);animation-play-state:paused" ></path>
<path d="M 0 339.766 C 197 339.766 394 298.234 591 298.234 C 788 298.234 985 339.766 1182 339.766 C 1379 339.766 1576 298.234 1773 298.234 C 1970 298.234 2167 339.766 2364 339.766" fill="none" stroke="rgb(41, 170, 211)" stroke-opacity="0.36363636363636365" stroke-width="2" transform="matrix(1,0,0,1,-384.54388427734375,0)" style="transform:matrix(1, 0, 0, 1, -384.544, 0);animation-play-state:paused" ></path>
<path d="M 0 340.949 C 197 340.949 394 297.051 591 297.051 C 788 297.051 985 340.949 1182 340.949 C 1379 340.949 1576 297.051 1773 297.051 C 1970 297.051 2167 340.949 2364 340.949" fill="none" stroke="rgb(40, 172, 209)" stroke-opacity="0.38636363636363635" stroke-width="2" transform="matrix(1,0,0,1,-390.8478088378906,0)" style="transform:matrix(1, 0, 0, 1, -390.848, 0);animation-play-state:paused" ></path>
<path d="M 0 342.084 C 197 342.084 394 295.916 591 295.916 C 788 295.916 985 342.084 1182 342.084 C 1379 342.084 1576 295.916 1773 295.916 C 1970 295.916 2167 342.084 2364 342.084" fill="none" stroke="rgb(40, 174, 207)" stroke-opacity="0.4090909090909091" stroke-width="2" transform="matrix(1,0,0,1,-397.1520080566406,0)" style="transform:matrix(1, 0, 0, 1, -397.152, 0);animation-play-state:paused" ></path>
<path d="M 0 343.172 C 197 343.172 394 294.828 591 294.828 C 788 294.828 985 343.172 1182 343.172 C 1379 343.172 1576 294.828 1773 294.828 C 1970 294.828 2167 343.172 2364 343.172" fill="none" stroke="rgb(40, 176, 205)" stroke-opacity="0.4318181818181818" stroke-width="2" transform="matrix(1,0,0,1,-403.4559020996094,0)" style="transform:matrix(1, 0, 0, 1, -403.456, 0);animation-play-state:paused" ></path>
<path d="M 0 344.212 C 197 344.212 394 293.788 591 293.788 C 788 293.788 985 344.212 1182 344.212 C 1379 344.212 1576 293.788 1773 293.788 C 1970 293.788 2167 344.212 2364 344.212" fill="none" stroke="rgb(39, 179, 202)" stroke-opacity="0.45454545454545453" stroke-width="2" transform="matrix(1,0,0,1,-409.75982666015625,0)" style="transform:matrix(1, 0, 0, 1, -409.76, 0);animation-play-state:paused" ></path>
<path d="M 0 345.205 C 197 345.205 394 292.795 591 292.795 C 788 292.795 985 345.205 1182 345.205 C 1379 345.205 1576 292.795 1773 292.795 C 1970 292.795 2167 345.205 2364 345.205" fill="none" stroke="rgb(39, 181, 200)" stroke-opacity="0.4772727272727273" stroke-width="2" transform="matrix(1,0,0,1,-416.0639953613281,0)" style="transform:matrix(1, 0, 0, 1, -416.064, 0);animation-play-state:paused" ></path>
<path d="M 0 346.15 C 197 346.15 394 291.85 591 291.85 C 788 291.85 985 346.15 1182 346.15 C 1379 346.15 1576 291.85 1773 291.85 C 1970 291.85 2167 346.15 2364 346.15" fill="none" stroke="rgb(39, 184, 197)" stroke-opacity="0.5" stroke-width="2" transform="matrix(1,0,0,1,-422.3678894042969,0)" style="transform:matrix(1, 0, 0, 1, -422.368, 0);animation-play-state:paused" ></path>
<path d="M 0 347.049 C 197 347.049 394 290.951 591 290.951 C 788 290.951 985 347.049 1182 347.049 C 1379 347.049 1576 290.951 1773 290.951 C 1970 290.951 2167 347.049 2364 347.049" fill="none" stroke="rgb(38, 187, 194)" stroke-opacity="0.5227272727272727" stroke-width="2" transform="matrix(1,0,0,1,-428.6717834472656,0)" style="transform:matrix(1, 0, 0, 1, -428.672, 0);animation-play-state:paused" ></path>
<path d="M 0 347.902 C 197 347.902 394 290.098 591 290.098 C 788 290.098 985 347.902 1182 347.902 C 1379 347.902 1576 290.098 1773 290.098 C 1970 290.098 2167 347.902 2364 347.902" fill="none" stroke="rgb(38, 190, 191)" stroke-opacity="0.5454545454545454" stroke-width="2" transform="matrix(1,0,0,1,-434.97601318359375,0)" style="transform:matrix(1, 0, 0, 1, -434.976, 0);animation-play-state:paused" ></path>
<path d="M 0 348.709 C 197 348.709 394 289.291 591 289.291 C 788 289.291 985 348.709 1182 348.709 C 1379 348.709 1576 289.291 1773 289.291 C 1970 289.291 2167 348.709 2364 348.709" fill="none" stroke="rgb(38, 193, 188)" stroke-opacity="0.5681818181818182" stroke-width="2" transform="matrix(1,0,0,1,-441.2799072265625,0)" style="transform:matrix(1, 0, 0, 1, -441.28, 0);animation-play-state:paused" ></path>
<path d="M 0 349.472 C 197 349.472 394 288.528 591 288.528 C 788 288.528 985 349.472 1182 349.472 C 1379 349.472 1576 288.528 1773 288.528 C 1970 288.528 2167 349.472 2364 349.472" fill="none" stroke="rgb(37, 196, 185)" stroke-opacity="0.5909090909090909" stroke-width="2" transform="matrix(1,0,0,1,-447.58380126953125,0)" style="transform:matrix(1, 0, 0, 1, -447.584, 0);animation-play-state:paused" ></path>
<path d="M 0 350.191 C 197 350.191 394 287.809 591 287.809 C 788 287.809 985 350.192 1182 350.192 C 1379 350.192 1576 287.809 1773 287.809 C 1970 287.809 2167 350.192 2364 350.192" fill="none" stroke="rgb(37, 198, 183)" stroke-opacity="0.6136363636363636" stroke-width="2" transform="matrix(1,0,0,1,-453.88800048828125,0)" style="transform:matrix(1, 0, 0, 1, -453.888, 0);animation-play-state:paused" ></path>
<path d="M 0 350.868 C 197 350.868 394 287.132 591 287.132 C 788 287.132 985 350.868 1182 350.868 C 1379 350.868 1576 287.132 1773 287.132 C 1970 287.132 2167 350.868 2364 350.868" fill="none" stroke="rgb(36, 201, 180)" stroke-opacity="0.6363636363636364" stroke-width="2" transform="matrix(1,0,0,1,-460.19189453125,0)" style="transform:matrix(1, 0, 0, 1, -460.192, 0);animation-play-state:paused" ></path>
<path d="M 0 351.504 C 197 351.504 394 286.496 591 286.496 C 788 286.496 985 351.504 1182 351.504 C 1379 351.504 1576 286.496 1773 286.496 C 1970 286.496 2167 351.504 2364 351.504" fill="none" stroke="rgb(36, 204, 177)" stroke-opacity="0.6590909090909091" stroke-width="2" transform="matrix(1,0,0,1,-466.49578857421875,0)" style="transform:matrix(1, 0, 0, 1, -466.496, 0);animation-play-state:paused" ></path></g></svg>