<!DOCTYPE svg PUBLIC "-//W3C//DTD SVG 1.1//EN" "http://www.w3.org/Graphics/SVG/1.1/DTD/svg11.dtd">
<!-- Uploaded to: SVG Repo, www.svgrepo.com, Transformed by: SVG Repo Mixer Tools -->
<svg fill="#000000" version="1.1" id="Layer_1" xmlns="http://www.w3.org/2000/svg" xmlns:xlink="http://www.w3.org/1999/xlink" viewBox="0 0 489.994 489.994" xml:space="preserve" width="800px" height="800px">
<g id="SVGRepo_bgCarrier" stroke-width="0"/>
<g id="SVGRepo_tracerCarrier" stroke-linecap="round" stroke-linejoin="round"/>
<g id="SVGRepo_iconCarrier"> <g> <g> <g> <path d="M443.332,57.421H46.662C20.935,57.421,0,78.356,0,104.083V347.63c0,25.727,20.935,46.662,46.662,46.662h137.086v22.969 h30.625v22.968h-77.489c-3.196-13.144-14.989-22.968-29.107-22.968H0v60.06h107.777c13.679,0,25.122-9.248,28.735-21.78h77.861 v22.969h114.842v-61.25h30.625v-22.969h83.492c25.727,0,46.662-20.935,46.662-46.662V104.083 C489.994,78.356,469.059,57.421,443.332,57.421z M107.777,462.008H15.312v-29.436h92.465c8.12,0,14.722,6.602,14.722,14.714 C122.498,455.406,115.896,462.008,107.777,462.008z M313.902,463.197h-84.218V417.26h84.218V463.197z M329.215,401.948H214.372 H199.06v-7.656h145.467v7.656H329.215z M474.681,347.63c0,17.286-14.064,31.35-31.35,31.35h-83.492H183.748H46.662 c-17.286,0-31.35-14.064-31.35-31.35V104.083c0-17.286,14.064-31.35,31.35-31.35h396.669c17.286,0,31.35,14.064,31.35,31.35 V347.63z"/> <path d="M422.277,88.046H266.769c-20.449,0-37.085,16.636-37.085,37.085v140.203c0,20.449,16.636,37.085,37.085,37.085h155.508 c20.449,0,37.092-16.636,37.092-37.085V125.13C459.369,104.681,442.726,88.046,422.277,88.046z M444.057,265.333 c0,12.008-9.772,21.772-21.78,21.772H266.769c-12.008,0-21.772-9.765-21.772-21.772V125.13c0-12.008,9.765-21.772,21.772-21.772 h155.508c12.008,0,21.78,9.765,21.78,21.772V265.333z"/> <path d="M160.779,271.793c-25.331,0-45.937,20.606-45.937,45.937s20.606,45.937,45.937,45.937s45.937-20.606,45.937-45.937 C206.716,292.399,186.11,271.793,160.779,271.793z M160.779,348.355c-16.89,0-30.625-13.735-30.625-30.625 c0-14.23,9.796-26.114,22.968-29.538v21.882h15.312v-21.882c13.172,3.423,22.968,15.308,22.968,29.538 C191.404,334.62,177.669,348.355,160.779,348.355z"/> <path d="M38.281,241.169h168.435V88.046H38.281V241.169z M53.593,103.358h137.811v122.498H53.593V103.358z"/> <rect x="38.281" y="271.793" width="61.249" height="15.312"/> <rect x="38.281" y="310.074" width="61.249" height="15.312"/> <rect x="38.281" y="348.355" width="61.249" height="15.312"/> <path d="M114.843,11.484h-0.001H38.281v38.281h76.562V11.484z M99.53,34.453H53.593v-7.656H99.53V34.453z"/> <path d="M344.527,118.67c-42.214,0-76.561,34.348-76.561,76.561c0,42.213,34.348,76.562,76.561,76.562 s76.561-34.348,76.561-76.562S386.74,118.67,344.527,118.67z M344.527,256.481c-33.772,0-61.249-27.477-61.249-61.249 s27.477-61.249,61.249-61.249c33.772,0,61.249,27.477,61.249,61.249S378.299,256.481,344.527,256.481z"/> <path d="M344.527,141.639c-29.548,0-53.593,24.045-53.593,53.593c0,29.548,24.045,53.593,53.593,53.593 s53.593-24.045,53.593-53.593C398.12,165.684,374.075,141.639,344.527,141.639z M344.527,233.513 c-21.107,0-38.281-17.174-38.281-38.281s17.174-38.281,38.281-38.281s38.281,17.174,38.281,38.281 C382.807,216.339,365.634,233.513,344.527,233.513z"/> <path d="M344.527,172.263c-12.666,0-22.969,10.303-22.969,22.968c0,12.666,10.303,22.969,22.969,22.969 c12.665,0,22.968-10.303,22.968-22.969C367.495,182.566,357.192,172.263,344.527,172.263z M344.527,202.888 c-4.224,0-7.656-3.432-7.656-7.656s3.432-7.656,7.656-7.656s7.656,3.432,7.656,7.656S348.751,202.888,344.527,202.888z"/> <rect x="68.905" y="118.67" width="15.312" height="38.281"/> <rect x="68.905" y="172.263" width="15.312" height="38.281"/> <rect x="336.871" y="340.699" width="122.498" height="15.312"/> <rect x="130.155" y="34.453" width="313.902" height="15.312"/> </g> </g> </g> </g>
</svg>