<!DOCTYPE svg PUBLIC "-//W3C//DTD SVG 1.1//EN" "http://www.w3.org/Graphics/SVG/1.1/DTD/svg11.dtd">
<!-- Uploaded to: SVG Repo, www.svgrepo.com, Transformed by: SVG Repo Mixer Tools -->
<svg fill="#000000" height="800px" width="800px" version="1.1" id="Layer_1" xmlns="http://www.w3.org/2000/svg" xmlns:xlink="http://www.w3.org/1999/xlink" viewBox="0 0 512 512" xml:space="preserve">
<g id="SVGRepo_bgCarrier" stroke-width="0"/>
<g id="SVGRepo_tracerCarrier" stroke-linecap="round" stroke-linejoin="round"/>
<g id="SVGRepo_iconCarrier"> <g> <g> <path d="M403.517,497.183L296.471,286.264c-1.739-3.425-5.254-5.583-9.095-5.583H266.2v-80.987h25.879v8.42 c0,5.633,4.566,10.199,10.199,10.199h24.016c5.633,0,10.199-4.566,10.199-10.199v-37.239c0-5.633-4.566-10.199-10.199-10.199 h-24.016c-5.633,0-10.199,4.566-10.199,10.199v8.42H266.2v-32.599h20.949c5.633,0,10.199-4.566,10.199-10.199V81.741 c0-5.633-4.566-10.199-10.199-10.199H217.84c-4.111-11.267-9.98-21.896-17.475-31.375c-15.722-19.88-37.963-34.048-62.626-39.891 c-3.031-0.721-6.225-0.011-8.669,1.917c-2.445,1.93-3.875,4.87-3.882,7.986l-0.421,200.3c-0.006,3.115,1.411,6.061,3.847,8.001 c1.824,1.45,4.066,2.219,6.352,2.219c0.77,0,1.544-0.087,2.309-0.265c24.772-5.758,47.124-19.898,62.941-39.813 c8.092-10.189,14.309-21.706,18.467-33.926h27.118v133.986h-21.176c-3.841,0-7.357,2.158-9.095,5.583L108.483,497.183 c-2.55,5.023-0.544,11.162,4.479,13.711c5.024,2.549,11.161,0.545,13.711-4.479l57.836-113.959l61.292,61.291v48.051 c0,5.633,4.566,10.199,10.199,10.199c5.633,0,10.199-4.566,10.199-10.199v-48.512l61.136-61.136l57.991,114.265 c1.799,3.544,5.383,5.585,9.103,5.585c1.552,0,3.129-0.356,4.608-1.106C404.061,508.345,406.067,502.206,403.517,497.183z M312.476,181.074h3.618v16.841h-3.618V181.074z M145.194,196.72l0.363-172.693c35.181,13.727,58.788,47.559,58.788,86.274 C204.345,149.203,180.59,183.095,145.194,196.72z M245.801,424.9l-51.579-51.579l36.664-72.242h14.915V424.9z M223.572,126.298 c0.761-5.284,1.172-10.629,1.172-15.996c0-6.169-0.522-12.31-1.525-18.362h53.731v34.358H223.572z M266.199,424.438V301.079 h14.915l36.509,71.936L266.199,424.438z"/> </g> </g> <g> <g> <path d="M164.207,88.782c-5.633,0-10.199,4.566-10.199,10.199v63.187c0,5.633,4.566,10.199,10.199,10.199 s10.199-4.566,10.199-10.199V98.981C174.407,93.348,169.84,88.782,164.207,88.782z"/> </g> </g> <g> <g> <path d="M164.207,55.077c-5.633,0-10.199,4.566-10.199,10.199v5.339c0,5.633,4.566,10.199,10.199,10.199 s10.199-4.566,10.199-10.199v-5.339C174.407,59.643,169.84,55.077,164.207,55.077z"/> </g> </g> </g>
</svg>