<!DOCTYPE svg PUBLIC "-//W3C//DTD SVG 1.1//EN" "http://www.w3.org/Graphics/SVG/1.1/DTD/svg11.dtd">
<!-- Uploaded to: SVG Repo, www.svgrepo.com, Transformed by: SVG Repo Mixer Tools -->
<svg fill="#000000" height="800px" width="800px" version="1.1" id="Layer_1" xmlns="http://www.w3.org/2000/svg" xmlns:xlink="http://www.w3.org/1999/xlink" viewBox="0 0 512 512" xml:space="preserve">
<g id="SVGRepo_bgCarrier" stroke-width="0"/>
<g id="SVGRepo_tracerCarrier" stroke-linecap="round" stroke-linejoin="round"/>
<g id="SVGRepo_iconCarrier"> <g transform="translate(1 1)"> <g> <g> <path d="M331.507,186.733c5.12,0,8.533-3.413,8.533-8.533s-3.413-8.533-8.533-8.533s-8.533,3.413-8.533,8.533 S326.387,186.733,331.507,186.733z"/> <path d="M297.373,186.733c5.12,0,8.533-3.413,8.533-8.533s-3.413-8.533-8.533-8.533c-5.12,0-8.533,3.413-8.533,8.533 S292.253,186.733,297.373,186.733z"/> <path d="M263.24,186.733c5.12,0,8.533-3.413,8.533-8.533s-3.413-8.533-8.533-8.533s-8.533,3.413-8.533,8.533 S258.12,186.733,263.24,186.733z"/> <path d="M475.72,498.2L310.443,250.284l33.011-13.204c3.413-0.853,5.12-4.267,5.12-7.68v-8.533c14.507,0,25.6-11.093,25.6-25.6 V75.8c0-42.667-34.133-76.8-76.8-76.8c-42.667,0-76.8,34.133-76.8,76.8v25.6h-25.6c0-5.12-3.413-8.533-8.533-8.533H41.373 c-5.12,0-8.533,3.413-8.533,8.533v85.333c0,5.12,3.413,8.533,8.533,8.533H186.44c5.12,0,8.533-3.413,8.533-8.533h25.6v8.533 c0,14.507,11.093,25.6,25.6,25.6v8.533c0,3.413,1.707,6.827,5.12,7.68l32.561,13.025L119.027,497.347 c-2.56,4.267-1.707,9.387,2.56,11.947c1.707,0.853,3.413,1.707,5.12,1.707c2.56,0,5.12-1.707,6.827-4.267l155.307-232.96v228.693 c0,5.12,3.413,8.533,8.533,8.533c5.12,0,8.533-3.413,8.533-8.533v-227.84l155.307,232.96c1.707,1.707,4.267,3.413,6.827,3.413 c1.707,0,3.413-0.853,5.12-0.853C477.427,507.587,478.28,502.467,475.72,498.2z M297.373,16.067 c33.28,0,59.733,26.453,59.733,59.733c0,33.28-26.453,59.733-59.733,59.733c-33.28,0-59.733-26.453-59.733-59.733 C237.64,42.52,264.093,16.067,297.373,16.067z M49.907,178.2v-68.267h128V178.2H49.907z M194.973,169.667v-51.2h25.6v51.2 H194.973z M237.64,195.267V178.2v-53.76c1.398,1.645,2.861,3.233,4.383,4.763c11.955,12.394,28.071,20.727,46.199,22.846 c0.129,0.016,0.258,0.034,0.387,0.049c0.553,0.062,1.108,0.119,1.664,0.169c0.944,0.088,1.893,0.161,2.847,0.214 c0.252,0.013,0.505,0.022,0.757,0.033c1.16,0.053,2.324,0.087,3.497,0.087s2.337-0.035,3.497-0.087 c0.252-0.011,0.505-0.019,0.757-0.033c0.954-0.053,1.903-0.126,2.847-0.214c0.557-0.05,1.111-0.107,1.664-0.169 c0.129-0.015,0.258-0.033,0.387-0.049c18.127-2.119,34.243-10.452,46.198-22.845c1.522-1.53,2.985-3.118,4.384-4.763v70.827 c0,5.12-3.413,8.533-8.533,8.533h-8.533h-85.333h-8.533C241.053,203.8,237.64,200.387,237.64,195.267z M263.24,220.867h68.267 v2.56l-34.133,13.653l-34.133-13.653V220.867z"/> <path d="M297.373,109.933c18.773,0,34.133-15.36,34.133-34.133c0-18.773-15.36-34.133-34.133-34.133 c-18.773,0-34.133,15.36-34.133,34.133C263.24,94.573,278.6,109.933,297.373,109.933z M297.373,58.733 c9.387,0,17.067,7.68,17.067,17.067s-7.68,17.067-17.067,17.067c-9.387,0-17.067-7.68-17.067-17.067 S287.987,58.733,297.373,58.733z"/> </g> </g> </g> </g>
</svg>